<mxfile host="app.diagrams.net" modified="2020-09-23T07:26:33.032Z" agent="5.0 (Windows NT 10.0; Win64; x64) AppleWebKit/537.36 (KHTML, like Gecko) Chrome/85.0.4183.102 Safari/537.36" etag="7CQrsXORiP7FsoUDCzKQ" version="13.7.4" type="github">
  <diagram id="aqy0AH32tFw05BwNdAiH" name="Page-1">
    <mxGraphModel dx="1422" dy="762" grid="1" gridSize="10" guides="1" tooltips="1" connect="1" arrows="1" fold="1" page="1" pageScale="1" pageWidth="850" pageHeight="1100" math="0" shadow="0">
      <root>
        <mxCell id="0" />
        <mxCell id="1" parent="0" />
        <mxCell id="YiaZ-hb2dVemYkmOo43r-4" value="" style="edgeStyle=orthogonalEdgeStyle;rounded=0;orthogonalLoop=1;jettySize=auto;html=1;" parent="1" source="YiaZ-hb2dVemYkmOo43r-1" target="YiaZ-hb2dVemYkmOo43r-3" edge="1">
          <mxGeometry relative="1" as="geometry" />
        </mxCell>
        <mxCell id="YiaZ-hb2dVemYkmOo43r-1" value="&lt;div style=&quot;text-align: justify&quot;&gt;&lt;span&gt;&amp;lt;deposit&amp;gt;&lt;/span&gt;&lt;/div&gt;&lt;div style=&quot;text-align: justify&quot;&gt;&lt;span&gt;&lt;br&gt;&lt;/span&gt;&lt;/div&gt;&lt;div style=&quot;text-align: justify&quot;&gt;&lt;span&gt;&amp;nbsp; &amp;nbsp; &amp;nbsp; &amp;lt;payment&amp;gt;&lt;/span&gt;&lt;/div&gt;&lt;div style=&quot;text-align: justify&quot;&gt;&lt;span&gt;&amp;nbsp; &amp;nbsp; &amp;nbsp; &amp;lt;/payment&amp;gt;&lt;/span&gt;&lt;/div&gt;&lt;div style=&quot;text-align: justify&quot;&gt;&lt;span&gt;&lt;br&gt;&lt;/span&gt;&lt;/div&gt;&lt;div style=&quot;text-align: justify&quot;&gt;&lt;span&gt;&amp;lt;/deposit&amp;gt;&lt;/span&gt;&lt;/div&gt;" style="whiteSpace=wrap;html=1;aspect=fixed;align=center;" parent="1" vertex="1">
          <mxGeometry x="50" y="40" width="150" height="150" as="geometry" />
        </mxCell>
        <mxCell id="YiaZ-hb2dVemYkmOo43r-3" value="&lt;div style=&quot;text-align: justify&quot;&gt;param: &lt;b&gt;code + consentId&lt;/b&gt;&lt;/div&gt;" style="whiteSpace=wrap;html=1;aspect=fixed;align=center;" parent="1" vertex="1">
          <mxGeometry x="280" y="40" width="150" height="150" as="geometry" />
        </mxCell>
        <mxCell id="YiaZ-hb2dVemYkmOo43r-31" value="" style="edgeStyle=orthogonalEdgeStyle;rounded=0;orthogonalLoop=1;jettySize=auto;html=1;fontColor=#FFFFFF;" parent="1" source="YiaZ-hb2dVemYkmOo43r-7" target="YiaZ-hb2dVemYkmOo43r-30" edge="1">
          <mxGeometry relative="1" as="geometry" />
        </mxCell>
        <mxCell id="YiaZ-hb2dVemYkmOo43r-7" value="" style="rounded=1;whiteSpace=wrap;html=1;align=center;" parent="1" vertex="1">
          <mxGeometry x="320" y="140" width="290" height="170" as="geometry" />
        </mxCell>
        <mxCell id="YiaZ-hb2dVemYkmOo43r-8" value="&lt;div&gt;&lt;span&gt;Accounts&lt;/span&gt;&lt;/div&gt;&lt;ol&gt;&lt;li&gt;account 1&lt;/li&gt;&lt;li&gt;account 2&lt;/li&gt;&lt;/ol&gt;" style="whiteSpace=wrap;html=1;aspect=fixed;align=left;" parent="1" vertex="1">
          <mxGeometry x="345" y="180" width="105" height="105" as="geometry" />
        </mxCell>
        <mxCell id="YiaZ-hb2dVemYkmOo43r-11" value="step 1" style="text;html=1;resizable=0;autosize=1;align=center;verticalAlign=middle;points=[];fillColor=none;strokeColor=none;rounded=0;" parent="1" vertex="1">
          <mxGeometry x="365" y="160" width="50" height="20" as="geometry" />
        </mxCell>
        <mxCell id="YiaZ-hb2dVemYkmOo43r-12" value="Form&lt;br&gt;&lt;ol&gt;&lt;li&gt;Amount&lt;/li&gt;&lt;li&gt;messge&lt;br&gt;&lt;br&gt;&lt;/li&gt;&lt;/ol&gt;" style="whiteSpace=wrap;html=1;aspect=fixed;align=left;" parent="1" vertex="1">
          <mxGeometry x="480" y="180" width="105" height="105" as="geometry" />
        </mxCell>
        <mxCell id="YiaZ-hb2dVemYkmOo43r-13" value="step 2" style="text;html=1;resizable=0;autosize=1;align=center;verticalAlign=middle;points=[];fillColor=none;strokeColor=none;rounded=0;" parent="1" vertex="1">
          <mxGeometry x="500" y="160" width="50" height="20" as="geometry" />
        </mxCell>
        <mxCell id="YiaZ-hb2dVemYkmOo43r-17" value="&lt;span style=&quot;&quot;&gt;confirm&lt;/span&gt;" style="text;html=1;resizable=0;autosize=1;align=center;verticalAlign=middle;points=[];fillColor=none;strokeColor=none;rounded=0;fontColor=#FFFFFF;labelBackgroundColor=#66B2FF;sketch=1;strokeWidth=1;labelBorderColor=#0066CC;" parent="1" vertex="1">
          <mxGeometry x="507.5" y="260" width="50" height="20" as="geometry" />
        </mxCell>
        <mxCell id="YiaZ-hb2dVemYkmOo43r-26" value="&lt;div style=&quot;text-align: justify&quot;&gt;param: &lt;b&gt;paymentId&lt;/b&gt;&lt;/div&gt;" style="whiteSpace=wrap;html=1;aspect=fixed;align=center;" parent="1" vertex="1">
          <mxGeometry x="270" y="350" width="150" height="150" as="geometry" />
        </mxCell>
        <mxCell id="YiaZ-hb2dVemYkmOo43r-27" value="" style="rounded=1;whiteSpace=wrap;html=1;align=center;" parent="1" vertex="1">
          <mxGeometry x="310" y="450" width="160" height="170" as="geometry" />
        </mxCell>
        <mxCell id="YiaZ-hb2dVemYkmOo43r-28" value="&lt;div&gt;&lt;span&gt;payemnt status: processing&lt;/span&gt;&lt;/div&gt;" style="whiteSpace=wrap;html=1;aspect=fixed;align=center;" parent="1" vertex="1">
          <mxGeometry x="337.5" y="490" width="105" height="105" as="geometry" />
        </mxCell>
        <mxCell id="YiaZ-hb2dVemYkmOo43r-29" value="step 1" style="text;html=1;resizable=0;autosize=1;align=center;verticalAlign=middle;points=[];fillColor=none;strokeColor=none;rounded=0;" parent="1" vertex="1">
          <mxGeometry x="365" y="470" width="50" height="20" as="geometry" />
        </mxCell>
        <mxCell id="YiaZ-hb2dVemYkmOo43r-30" value="Viia confirmstion page&amp;nbsp;" style="shape=note;whiteSpace=wrap;html=1;backgroundOutline=1;darkOpacity=0.05;rounded=1;" parent="1" vertex="1">
          <mxGeometry x="795" y="180" width="80" height="100" as="geometry" />
        </mxCell>
        <mxCell id="YiaZ-hb2dVemYkmOo43r-32" value="&amp;nbsp;redirect&amp;nbsp; to viia.com&amp;nbsp;" style="text;html=1;resizable=0;autosize=1;align=center;verticalAlign=middle;points=[];fillColor=none;strokeColor=none;rounded=0;labelBackgroundColor=#FFFFFF;sketch=1;fontStyle=2;labelBorderColor=#000000;spacingTop=2;spacing=5;" parent="1" vertex="1">
          <mxGeometry x="620" y="195" width="140" height="30" as="geometry" />
        </mxCell>
        <mxCell id="YiaZ-hb2dVemYkmOo43r-34" value="" style="endArrow=classic;html=1;shadow=0;fontColor=#000000;entryX=1.007;entryY=0.313;entryDx=0;entryDy=0;entryPerimeter=0;exitX=0.5;exitY=1;exitDx=0;exitDy=0;exitPerimeter=0;" parent="1" source="YiaZ-hb2dVemYkmOo43r-30" target="YiaZ-hb2dVemYkmOo43r-26" edge="1">
          <mxGeometry width="50" height="50" relative="1" as="geometry">
            <mxPoint x="820" y="320" as="sourcePoint" />
            <mxPoint x="450" y="300" as="targetPoint" />
            <Array as="points">
              <mxPoint x="835" y="397" />
            </Array>
          </mxGeometry>
        </mxCell>
        <mxCell id="N1xd5q5irAM0GXClWkK1-1" value="&amp;nbsp;back to localhost&amp;nbsp;" style="text;html=1;resizable=0;autosize=1;align=center;verticalAlign=middle;points=[];fillColor=none;strokeColor=none;rounded=0;labelBackgroundColor=#FFFFFF;sketch=1;fontColor=#000000;labelBorderColor=#000000;" vertex="1" parent="1">
          <mxGeometry x="565" y="370" width="110" height="20" as="geometry" />
        </mxCell>
      </root>
    </mxGraphModel>
  </diagram>
</mxfile>
